<svg width="170" height="170" viewBox="0 0 170 170" fill="none" xmlns="http://www.w3.org/2000/svg">
<path d="M129.658 42.666C129.555 43.2781 129.383 43.7989 129.134 44.3664C129.058 44.5398 128.982 44.7133 128.905 44.892C128.779 45.1769 128.779 45.1769 128.652 45.4675C128.468 45.8904 128.285 46.3138 128.102 46.7373C128.054 46.8498 128.005 46.9623 127.955 47.0782C127.366 48.4508 126.8 49.8331 126.234 51.2158C126.18 51.3492 126.125 51.4827 126.069 51.6202C125.782 52.3204 125.496 53.0209 125.21 53.7214C124.619 55.1711 124.025 56.6203 123.433 58.0696C123.24 58.5398 123.048 59.01 122.856 59.4803C122.091 61.3512 121.327 63.2218 120.527 65.0781C119.565 67.3255 118.617 69.5785 117.691 71.8407C117.598 72.0673 117.505 72.2937 117.411 72.5199C116.876 73.8173 116.402 75.1031 116.054 76.4655C115.879 76.8652 115.879 76.8652 115.569 77.0004C115.215 77.0312 115.215 77.0312 114.949 76.8636C114.863 76.7754 114.777 76.6871 114.688 76.5961C114.589 76.4968 114.491 76.3975 114.389 76.2952C114.284 76.1854 114.179 76.0756 114.071 75.9625C113.961 75.8508 113.851 75.7391 113.737 75.624C113.384 75.2649 113.033 74.9031 112.683 74.541C112.335 74.1842 111.986 73.828 111.636 73.4722C111.419 73.2506 111.202 73.0284 110.986 72.8053C110.363 72.1649 109.716 71.5671 109.039 70.9836C108.675 70.6659 108.335 70.3306 107.998 69.9847C107.81 69.7937 107.81 69.7937 107.618 69.5988C107.362 69.3371 107.107 69.0751 106.851 68.8128C106.139 68.0895 105.438 67.4649 104.59 66.9043C103.615 67.7235 102.716 68.6005 101.833 69.5159C101.596 69.7582 101.35 69.9922 101.104 70.2246C100.994 70.2246 100.884 70.2246 100.771 70.2246C100.771 70.3342 100.771 70.4437 100.771 70.5566C100.662 70.5566 100.552 70.5566 100.439 70.5566C100.439 70.6662 100.439 70.7758 100.439 70.8887C100.197 71.1277 100.197 71.1277 99.8611 71.4059C99.1176 72.0387 98.4277 72.7121 97.7393 73.4039C97.6093 73.5339 97.4793 73.6639 97.3453 73.7979C96.9196 74.2237 96.4944 74.6502 96.0692 75.0767C95.7717 75.3745 95.4741 75.6724 95.1764 75.9702C94.4751 76.6721 93.7742 77.3743 93.0734 78.0767C92.2783 78.8737 91.4827 79.6702 90.6871 80.4667C89.3263 81.8289 87.9659 83.1914 86.606 84.5543C86.1357 85.0256 85.6653 85.4968 85.1944 85.9675C84.9287 86.2333 84.6641 86.5003 84.4001 86.7678C84.1783 86.9919 84.1783 86.9919 83.952 87.2205C83.8054 87.369 83.6588 87.5175 83.5078 87.6705C83.1711 88.0037 82.8228 88.3131 82.4606 88.6183C81.3577 89.5808 80.3416 90.6356 79.3097 91.6728C79.0713 91.9118 78.8328 92.1508 78.5943 92.3897C78.0828 92.9024 77.5714 93.4153 77.0603 93.9284C76.2514 94.7403 75.4418 95.5515 74.632 96.3626C72.3302 98.6684 70.0294 100.975 67.7293 103.283C66.4574 104.559 65.185 105.834 63.9119 107.109C63.1074 107.914 62.3037 108.721 61.5006 109.527C61.0002 110.03 60.4992 110.531 59.998 111.033C59.7664 111.265 59.5351 111.497 59.3041 111.729C58.9877 112.048 58.6703 112.365 58.3526 112.682C58.2625 112.774 58.1723 112.865 58.0794 112.959C57.5028 113.532 56.897 114.018 56.2323 114.487C55.9035 114.729 55.9035 114.729 55.6152 115.215C55.5648 115.662 55.5648 115.662 55.5698 116.168C55.567 116.358 55.5641 116.548 55.5611 116.743C55.5584 116.944 55.5557 117.145 55.553 117.352C55.4891 119.648 55.4052 121.463 53.7048 123.178C52.786 123.928 51.7397 124.307 50.5492 124.243C48.3639 123.907 47.0061 122.9 45.4468 121.42C45.34 121.319 45.2332 121.217 45.1231 121.113C44.9056 120.907 44.6884 120.7 44.4717 120.492C44.1842 120.218 43.894 119.948 43.6031 119.677C41.6834 117.865 40.3808 115.857 40.2795 113.14C40.3644 110.777 41.314 108.976 43.0136 107.362C43.2825 107.122 43.5597 106.893 43.8385 106.665C44.2221 106.339 44.514 106.044 44.835 105.664C45.5624 104.824 46.3442 104.044 47.131 103.26C47.2934 103.098 47.4558 102.936 47.6182 102.773C48.0554 102.336 48.4932 101.899 48.9311 101.462C49.391 101.003 49.8504 100.544 50.3099 100.085C51.1793 99.2159 52.0491 98.3474 52.9191 97.4791C53.9068 96.4933 54.894 95.507 55.8812 94.5206C57.5691 92.8342 59.2573 91.1481 60.9459 89.4624C61.2148 89.194 61.4836 88.9256 61.7525 88.6571C61.9559 88.454 62.1594 88.251 62.363 88.0481C62.6463 87.7654 62.9273 87.4823 63.2001 87.1893C63.418 86.9922 63.418 86.9922 63.75 86.9922C63.75 86.8826 63.75 86.773 63.75 86.6601C63.984 86.4297 63.984 86.4297 64.3135 86.1582C65.1487 85.4479 65.9155 84.6789 66.6864 83.9001C66.8926 83.6928 66.8926 83.6928 67.1031 83.4812C67.3659 83.2169 67.6285 82.9524 67.8908 82.6877C68.1674 82.4092 68.4455 82.1326 68.7246 81.8567C69.0733 81.5167 69.0733 81.5167 69.3738 81.109C69.7484 80.6572 70.1519 80.3069 70.6007 79.932C71.1274 79.4848 71.6005 79.0124 72.0197 78.4631C72.3193 78.1035 72.5903 77.8412 72.945 77.5435C73.9137 76.7036 74.804 75.7859 75.7046 74.8746C75.9027 74.6748 76.1008 74.4751 76.299 74.2754C76.7236 73.8475 77.1479 73.4194 77.5722 72.9911C78.2442 72.3128 78.9174 71.6356 79.5909 70.9586C79.7049 70.844 79.819 70.7293 79.9364 70.6112C80.1695 70.377 80.4025 70.1427 80.6356 69.9084C82.2016 68.3341 83.767 66.7591 85.3292 65.1809C86.3855 64.1139 87.4436 63.0486 88.5038 61.9854C89.0636 61.4238 89.6224 60.8614 90.1791 60.2968C90.703 59.7655 91.2291 59.2366 91.7571 58.7094C91.9494 58.5166 92.1408 58.323 92.3313 58.1284C93.4823 56.9536 94.583 56.0858 96.123 55.4492C96.2513 55.3931 96.3795 55.3369 96.5117 55.2791C96.8645 55.1271 97.2196 54.983 97.5766 54.8411C97.7078 54.7881 97.839 54.7352 97.9742 54.6806C98.4026 54.508 98.8316 54.3366 99.2605 54.1652C99.5679 54.0416 99.8753 53.918 100.183 53.7943C100.991 53.4693 101.8 53.1454 102.608 52.8219C103.086 52.6307 103.564 52.4393 104.042 52.2478C106.251 51.3625 108.46 50.4795 110.67 49.5972C118.68 46.4028 118.68 46.4028 126.654 43.1174C126.94 42.9979 126.94 42.9979 127.233 42.8761C127.397 42.8073 127.562 42.7384 127.731 42.6675C128.53 42.3585 128.864 42.2912 129.658 42.666Z" fill="#FEFEFE"/>
<path d="M103.975 87.09C104.534 87.3814 104.891 87.7774 105.295 88.2476C105.456 88.4281 105.616 88.6084 105.777 88.7884C105.857 88.8777 105.936 88.967 106.018 89.059C106.736 89.855 107.494 90.6193 108.325 91.2981C108.864 91.7424 108.894 91.8545 108.969 92.5536C108.945 93.6575 108.456 94.5724 107.692 95.3538C107.552 95.4844 107.411 95.6149 107.267 95.7494C106.285 96.6805 105.797 97.721 105.254 98.9452C105.161 99.1391 105.069 99.333 104.973 99.5328C104.052 101.465 103.545 103.149 104.185 105.264C104.955 107.322 106.193 108.944 108.201 109.892C110.021 110.677 112.699 110.773 114.582 110.151C114.995 109.967 114.995 109.967 115.381 109.736C115.583 109.62 115.583 109.62 115.789 109.501C117.853 108.144 119.617 106.142 121.191 104.258C121.997 104.331 122.339 104.661 122.897 105.229C122.978 105.31 123.059 105.391 123.142 105.475C123.399 105.735 123.655 105.998 123.91 106.26C124.08 106.432 124.25 106.604 124.421 106.776C125.214 107.579 125.982 108.396 126.717 109.254C127.043 109.616 127.387 109.951 127.739 110.288C127.863 110.407 127.987 110.527 128.115 110.65C128.373 110.895 128.632 111.139 128.892 111.381C129.076 111.559 129.076 111.559 129.264 111.741C129.376 111.846 129.487 111.952 129.602 112.06C129.824 112.392 129.824 112.392 129.807 112.758C129.605 113.389 129.236 113.845 128.824 114.353C128.736 114.463 128.648 114.573 128.558 114.687C127.381 116.143 126.144 117.544 124.875 118.919C124.753 119.052 124.63 119.184 124.505 119.321C121.323 122.736 118.433 125.153 113.632 125.391C112.691 125.418 111.756 125.392 110.815 125.352C110.662 125.347 110.509 125.342 110.352 125.336C109.321 125.299 108.298 125.225 107.272 125.119C107.14 125.107 107.009 125.096 106.873 125.083C105.204 124.915 104.207 124.524 103.123 123.22C102.967 123.025 102.812 122.83 102.658 122.634C102.309 122.202 101.919 121.817 101.526 121.426C101.377 121.277 101.229 121.128 101.076 120.974C100.923 120.822 100.77 120.67 100.613 120.513C100.448 120.348 100.283 120.182 100.118 120.017C99.7759 119.675 99.4338 119.333 99.0915 118.992C98.6564 118.558 98.2221 118.123 97.7879 117.687C97.4486 117.348 97.109 117.008 96.7692 116.669C96.5321 116.432 96.2954 116.195 96.0586 115.957C95.3115 115.213 94.5575 114.488 93.7543 113.804C92.9065 113.068 92.1661 112.24 91.4325 111.392C90.7954 110.672 90.1134 110.01 89.3826 109.387C88.5551 108.666 87.7786 107.897 87.0026 107.121C86.8595 106.98 86.7164 106.839 86.569 106.694C86.4333 106.559 86.2975 106.423 86.1576 106.284C86.0347 106.161 85.9119 106.039 85.7854 105.914C85.498 105.586 85.498 105.586 85.332 105.088C85.4348 104.985 85.5375 104.882 85.6434 104.777C86.2892 104.131 86.9344 103.484 87.5797 102.838C89.3532 101.061 91.1273 99.2854 92.9016 97.5096C93.9268 96.4836 94.9518 95.4574 95.9765 94.4308C96.872 93.5337 97.7678 92.6368 98.6639 91.7403C99.1379 91.2661 99.6117 90.7918 100.085 90.3171C100.53 89.8714 100.975 89.4261 101.42 88.9811C101.584 88.8175 101.747 88.6537 101.91 88.4898C102.133 88.2667 102.355 88.0442 102.578 87.8217C102.703 87.6968 102.828 87.5719 102.956 87.4433C103.473 86.9611 103.473 86.9611 103.975 87.09Z" fill="#E35F30"/>
<path d="M41.7832 42.4284C41.9594 42.4201 41.9594 42.4201 42.1391 42.4116C42.536 42.3934 42.9329 42.3765 43.3299 42.3597C43.4686 42.3536 43.6073 42.3475 43.7501 42.3413C46.5143 42.2206 49.2793 42.1475 52.0454 42.0904C53.8043 42.0532 55.5603 42.0019 57.3174 41.9145C70.1464 41.2888 70.1464 41.2888 73.969 44.7077C78.2246 48.6882 78.2246 48.6882 78.4008 50.582C78.3486 51.0666 78.2136 51.2074 77.8626 51.5385C77.7593 51.6385 77.6559 51.7384 77.5494 51.8414C77.44 51.943 77.3307 52.0447 77.218 52.1494C77.0037 52.3536 76.7897 52.558 76.576 52.7629C76.4804 52.8524 76.3847 52.9419 76.2862 53.034C75.9986 53.3123 75.9986 53.3123 75.7031 53.7888C75.5936 53.7888 75.484 53.7888 75.3711 53.7888C75.3146 53.9275 75.3146 53.9275 75.257 54.069C74.978 54.5605 74.6121 54.8868 74.209 55.283C73.9287 55.5758 73.649 55.8691 73.3698 56.163C73.1303 56.4111 72.8901 56.6587 72.6498 56.906C72.4852 57.0765 72.3216 57.248 72.1592 57.4205C71.9221 57.6716 71.6815 57.9188 71.4399 58.1655C71.2983 58.3133 71.1566 58.461 71.0107 58.6132C70.4338 59.0224 70.0875 59.0033 69.3945 58.9353C67.4635 58.4665 66.0064 56.6699 64.9121 55.1169C64.8625 54.9982 64.8128 54.8794 64.7617 54.757C64.4995 54.318 64.2337 54.2756 63.75 54.1209C63.0171 54.039 62.2821 54.0199 61.5453 53.9975C61.1932 53.9862 60.8416 53.9702 60.4897 53.9539C58.1108 53.8633 55.8445 54.1851 53.9395 55.7311C53.0744 56.5467 52.4385 57.3842 52.3777 58.5977C52.3744 58.9121 52.3749 59.2266 52.3786 59.541C52.3782 59.793 52.3782 59.793 52.3779 60.0501C52.3781 60.4042 52.38 60.7584 52.3835 61.1125C52.3883 61.651 52.3869 62.1892 52.3847 62.7277C52.3858 63.0732 52.3872 63.4186 52.389 63.764C52.3885 63.9233 52.388 64.0827 52.3875 64.2468C52.4092 65.8192 52.7619 66.9979 53.8306 68.1595C53.9117 68.2514 53.9928 68.3432 54.0764 68.4378C54.2375 68.6198 54.3996 68.801 54.5626 68.9813C54.8568 69.3078 55.1422 69.6418 55.4285 69.9753C55.7551 70.3532 56.0614 70.6539 56.4453 70.9818C56.7773 71.3865 56.7773 71.3865 56.7715 71.9377C56.5812 72.6635 56.2675 72.9729 55.7086 73.4305C55.5132 73.5997 55.3185 73.7697 55.1243 73.9403C54.9646 74.0803 54.9646 74.0803 54.8016 74.2232C53.9883 74.9644 53.2294 75.7648 52.462 76.5529C52.3396 76.6771 52.2173 76.8013 52.0913 76.9292C51.9825 77.0408 51.8736 77.1525 51.7615 77.2675C51.4648 77.5291 51.4648 77.5291 50.9668 77.6951C50.6918 77.5213 50.6918 77.5213 50.3857 77.2385C50.2693 77.1315 50.1529 77.0245 50.033 76.9143C49.4443 76.345 48.8671 75.7648 48.295 75.1789C47.9541 74.8371 47.5992 74.5214 47.2315 74.2087C46.0739 73.2064 45.0202 72.0893 43.9443 71.0012C42.8839 69.9298 41.8287 68.8711 40.6738 67.9001C40.3772 67.6036 40.4869 67.1643 40.4867 66.7636C40.486 66.4472 40.486 66.4472 40.4853 66.1245C40.4856 65.8885 40.486 65.6526 40.4863 65.4167C40.4861 65.17 40.4858 64.9233 40.4855 64.6765C40.4847 64.0046 40.485 63.3327 40.4855 62.6607C40.4859 61.9591 40.4855 61.2575 40.4853 60.5558C40.485 59.3773 40.4854 58.1989 40.4862 57.0204C40.4871 55.6559 40.4868 54.2914 40.4859 52.927C40.4851 51.7576 40.485 50.5882 40.4854 49.4189C40.4857 48.7195 40.4857 48.0202 40.4852 47.3208C40.4847 46.6635 40.485 46.0062 40.486 45.3488C40.4862 45.1069 40.4862 44.8649 40.4858 44.623C40.4853 44.2941 40.486 43.9652 40.4867 43.6363C40.4868 43.4518 40.4869 43.2673 40.4869 43.0772C40.5282 42.2641 41.0759 42.4611 41.7832 42.4284Z" fill="#FEFEFD"/>
<path d="M128.828 42.334C129.264 42.4896 129.264 42.4896 129.658 42.666C129.555 43.2781 129.383 43.7989 129.134 44.3664C129.058 44.5398 128.982 44.7133 128.905 44.892C128.821 45.0819 128.738 45.2718 128.652 45.4675C128.468 45.8905 128.285 46.3138 128.102 46.7373C128.054 46.8498 128.005 46.9623 127.955 47.0782C127.366 48.4508 126.799 49.8331 126.234 51.2158C126.179 51.3493 126.125 51.4827 126.069 51.6202C125.782 52.3205 125.496 53.0209 125.21 53.7214C124.618 55.1711 124.025 56.6203 123.433 58.0696C123.24 58.5398 123.048 59.01 122.856 59.4803C122.091 61.3512 121.327 63.2218 120.527 65.0781C119.565 67.3255 118.617 69.5785 117.691 71.8408C117.598 72.0673 117.505 72.2937 117.411 72.5199C116.876 73.8173 116.401 75.1031 116.054 76.4656C115.879 76.8652 115.879 76.8652 115.569 77.0004C115.215 77.0313 115.215 77.0313 114.948 76.8637C114.863 76.7754 114.777 76.6871 114.688 76.5961C114.589 76.4968 114.491 76.3975 114.389 76.2952C114.231 76.1305 114.231 76.1305 114.071 75.9625C113.961 75.8508 113.851 75.7391 113.737 75.624C113.384 75.2649 113.033 74.9031 112.683 74.541C112.335 74.1842 111.986 73.8281 111.636 73.4723C111.419 73.2506 111.202 73.0284 110.986 72.8054C110.363 72.165 109.716 71.567 109.039 70.9836C108.674 70.6652 108.331 70.33 107.992 69.9847C107.866 69.8573 107.74 69.73 107.61 69.5988C107.483 69.4698 107.356 69.3407 107.225 69.2078C106.969 68.9475 106.713 68.6877 106.456 68.4283C106.336 68.3071 106.216 68.1859 106.093 68.0611C105.794 67.7751 105.492 67.527 105.162 67.2791C104.756 66.9043 104.756 66.9043 104.691 66.5115C104.776 65.9378 104.98 65.7489 105.39 65.3431C105.529 65.204 105.667 65.0649 105.81 64.9216C105.962 64.7734 106.114 64.6251 106.271 64.4724C106.426 64.3179 106.581 64.1634 106.741 64.0042C107.155 63.5928 107.571 63.1841 107.988 62.7757C108.324 62.4452 108.659 62.1128 108.993 61.7803C111.68 59.11 111.68 59.11 112.943 58.0225C113.301 57.7039 113.616 57.3598 113.929 56.9965C114.735 56.0832 115.582 55.2175 116.443 54.3567C116.703 54.0957 116.962 53.8335 117.222 53.5712C117.388 53.4046 117.554 53.2382 117.72 53.0718C117.869 52.9224 118.017 52.773 118.171 52.6191C118.535 52.2949 118.535 52.2949 118.867 52.2949C118.91 52.1964 118.952 52.0978 118.996 51.9963C119.219 51.5945 119.442 51.3864 119.796 51.0961C120.551 50.4567 121.243 49.7686 121.936 49.0641C122.204 48.7947 122.471 48.5254 122.738 48.2561C123.153 47.8375 123.567 47.4187 123.981 46.9994C126.8 44.1449 126.8 44.1449 128.206 43.0826C128.301 42.9999 128.397 42.9172 128.496 42.832C128.496 42.7225 128.496 42.6129 128.496 42.5C128.606 42.4452 128.715 42.3904 128.828 42.334Z" fill="#DE6226"/>
<path d="M40.6738 47.1484C41.4847 47.2157 41.8868 47.608 42.4278 48.1683C42.5162 48.2571 42.6046 48.346 42.6957 48.4375C42.9874 48.7313 43.2767 49.0274 43.5661 49.3235C43.7696 49.5291 43.9733 49.7345 44.1771 49.9398C44.714 50.481 45.249 51.0241 45.7835 51.5678C46.6361 52.4347 47.4909 53.2994 48.3468 54.163C48.6438 54.4634 48.9396 54.7649 49.2353 55.0665C49.4204 55.254 49.6056 55.4414 49.7909 55.6286C49.8784 55.7176 49.9658 55.8065 50.056 55.8982C50.5622 56.4039 51.0752 56.8159 51.6719 57.2157C52.0791 57.5199 52.2629 57.6765 52.4231 58.1616C52.4753 58.6288 52.4762 59.0714 52.4596 59.5412C52.46 59.7092 52.4604 59.8772 52.4608 60.0503C52.4609 60.5852 52.451 61.1193 52.4402 61.6541C52.4345 62.1875 52.4311 62.7208 52.4302 63.2542C52.4291 63.5852 52.425 63.9162 52.4175 64.247C52.4016 65.8273 52.7582 66.9941 53.8305 68.1598C53.9117 68.2516 53.9928 68.3434 54.0764 68.438C54.2375 68.62 54.3995 68.8012 54.5625 68.9815C54.8568 69.3081 55.1422 69.642 55.4284 69.9756C55.7551 70.3535 56.0614 70.6541 56.4453 70.9821C56.7773 71.3867 56.7773 71.3867 56.7715 71.9379C56.5812 72.6637 56.2675 72.9731 55.7086 73.4308C55.5132 73.5999 55.3185 73.7699 55.1243 73.9405C54.9646 74.0805 54.9646 74.0805 54.8016 74.2234C53.9883 74.9647 53.2294 75.765 52.4619 76.5532C52.3396 76.6773 52.2173 76.8015 52.0913 76.9294C51.9824 77.0411 51.8736 77.1527 51.7614 77.2677C51.4648 77.5293 51.4648 77.5293 50.9668 77.6953C50.6918 77.5215 50.6918 77.5215 50.3857 77.2388C50.2693 77.1318 50.1529 77.0248 50.0329 76.9145C49.4443 76.3452 48.8671 75.7651 48.295 75.1791C47.9541 74.8373 47.5992 74.5216 47.2314 74.209C46.0738 73.2066 45.0201 72.0896 43.9443 71.0014C42.8839 69.9301 41.8287 68.8713 40.6738 67.9004C40.4023 67.6289 40.4869 67.3223 40.4867 66.9477C40.4862 66.7776 40.4858 66.6074 40.4853 66.4321C40.4856 66.2438 40.486 66.0555 40.4863 65.8616C40.486 65.6645 40.4857 65.4675 40.4854 65.2645C40.4848 64.7225 40.485 64.1806 40.4855 63.6386C40.4859 63.0724 40.4855 62.5063 40.4853 61.9401C40.485 60.989 40.4854 60.0378 40.4861 59.0867C40.487 57.9861 40.4868 56.8855 40.4858 55.7849C40.4851 54.8412 40.485 53.8976 40.4854 52.9539C40.4857 52.3898 40.4857 51.8256 40.4852 51.2614C40.4847 50.6325 40.4854 50.0037 40.4863 49.3748C40.486 49.1868 40.4856 48.9989 40.4853 48.8053C40.4858 48.6346 40.4862 48.464 40.4867 48.2882C40.4868 48.1394 40.4868 47.9905 40.4869 47.8372C40.5078 47.4805 40.5078 47.4805 40.6738 47.1484Z" fill="#E15E2F"/>
<path d="M103.975 87.09C104.534 87.3814 104.891 87.7774 105.295 88.2476C105.456 88.4281 105.616 88.6084 105.777 88.7884C105.857 88.8777 105.936 88.967 106.018 89.059C106.736 89.855 107.494 90.6193 108.325 91.2981C108.864 91.7424 108.894 91.8545 108.969 92.5536C108.945 93.6575 108.456 94.5724 107.692 95.3538C107.552 95.4844 107.411 95.6149 107.267 95.7494C106.285 96.6805 105.797 97.721 105.254 98.9452C105.161 99.1391 105.069 99.333 104.973 99.5328C104.043 101.482 103.541 103.166 104.206 105.295C104.477 106.035 104.81 106.68 105.262 107.325C105.42 107.578 105.42 107.578 105.42 107.91C103.605 107.834 102.479 106.332 101.318 105.08C101.162 104.917 101.162 104.917 101.002 104.751C100.91 104.652 100.818 104.554 100.722 104.452C100.454 104.223 100.454 104.223 100.135 104.287C99.6612 104.467 99.4081 104.729 99.05 105.087C98.9082 105.228 98.7664 105.369 98.6203 105.514C98.4686 105.667 98.3169 105.82 98.1606 105.978C98.0024 106.136 97.8441 106.295 97.6857 106.453C97.3542 106.784 97.0236 107.117 96.6936 107.45C96.2711 107.876 95.8468 108.3 95.4219 108.724C95.0948 109.051 94.7686 109.378 94.4426 109.706C94.2107 109.938 93.9782 110.171 93.7457 110.403C93.605 110.545 93.4642 110.688 93.3192 110.834C93.1951 110.959 93.071 111.084 92.9432 111.213C92.6562 111.54 92.476 111.829 92.3047 112.226C92.1523 112.072 91.9999 111.918 91.843 111.759C91.6372 111.552 91.4314 111.344 91.2256 111.137C91.1259 111.036 91.0261 110.935 90.9234 110.831C90.4112 110.316 89.8924 109.819 89.3417 109.345C88.5257 108.64 87.765 107.883 87.0026 107.121C86.8595 106.98 86.7164 106.839 86.569 106.694C86.4333 106.559 86.2975 106.423 86.1576 106.284C86.0347 106.161 85.9119 106.039 85.7854 105.914C85.498 105.586 85.498 105.586 85.332 105.088C85.4348 104.985 85.5375 104.882 85.6434 104.777C86.2892 104.131 86.9344 103.484 87.5797 102.838C89.3532 101.061 91.1273 99.2854 92.9016 97.5096C93.9268 96.4836 94.9518 95.4574 95.9765 94.4308C96.872 93.5337 97.7678 92.6368 98.6639 91.7403C99.1379 91.2661 99.6117 90.7918 100.085 90.3171C100.53 89.8714 100.975 89.4261 101.42 88.9811C101.584 88.8175 101.747 88.6537 101.91 88.4898C102.133 88.2667 102.355 88.0442 102.578 87.8217C102.703 87.6968 102.828 87.5719 102.956 87.4433C103.473 86.9611 103.473 86.9611 103.975 87.09Z" fill="#B10641"/>
<path d="M121.191 104.258C121.997 104.331 122.339 104.662 122.897 105.229C122.978 105.31 123.059 105.391 123.142 105.475C123.399 105.735 123.655 105.998 123.91 106.26C124.08 106.432 124.25 106.604 124.421 106.776C125.214 107.579 125.982 108.396 126.717 109.254C127.043 109.616 127.387 109.951 127.739 110.288C127.863 110.408 127.987 110.527 128.115 110.65C128.373 110.895 128.632 111.139 128.892 111.381C129.015 111.5 129.138 111.619 129.264 111.741C129.376 111.846 129.487 111.952 129.602 112.06C129.824 112.393 129.824 112.393 129.82 112.759C129.581 113.443 129.13 113.838 128.618 114.338C128.51 114.447 128.401 114.555 128.289 114.667C127.931 115.025 127.57 115.381 127.209 115.737C126.96 115.985 126.71 116.233 126.461 116.481C125.806 117.134 125.148 117.785 124.491 118.436C123.82 119.1 123.15 119.766 122.481 120.432C121.168 121.739 119.852 123.043 118.535 124.346C118.423 124.234 118.312 124.122 118.196 124.007C117.627 123.437 117.055 122.869 116.483 122.302C115.265 121.091 114.048 119.88 112.832 118.668C112.096 117.935 111.36 117.203 110.623 116.471C109.91 115.763 109.197 115.054 108.486 114.343C108.214 114.073 107.942 113.803 107.67 113.533C107.29 113.157 106.912 112.779 106.534 112.402C106.421 112.29 106.307 112.178 106.19 112.063C106.088 111.96 105.986 111.857 105.881 111.751C105.791 111.662 105.702 111.573 105.609 111.481C105.42 111.23 105.42 111.23 105.42 110.732C105.672 110.763 105.672 110.763 105.928 110.795C106.653 110.726 106.66 110.694 107.101 110.193C107.397 109.914 107.397 109.914 107.744 109.736C108.169 109.818 108.169 109.818 108.668 110.006C110.452 110.672 112.76 110.739 114.582 110.151C114.995 109.967 114.995 109.967 115.381 109.736C115.516 109.659 115.651 109.581 115.789 109.502C117.853 108.145 119.617 106.143 121.191 104.258Z" fill="#FEFDFD"/>
<path d="M45.6543 104.756C46.2636 105.011 46.6451 105.379 47.105 105.848C47.2549 106 47.4048 106.151 47.5593 106.308C47.7164 106.468 47.8734 106.629 48.0304 106.79C49.1872 107.988 49.1872 107.988 50.424 109.101C50.8251 109.434 51.1634 109.783 51.5012 110.18C51.988 110.752 52.5077 111.282 53.0472 111.804C53.1277 111.882 53.2082 111.961 53.2911 112.041C53.6253 112.367 53.9597 112.691 54.2972 113.013C54.5465 113.251 54.7931 113.492 55.0394 113.734C55.1859 113.875 55.3323 114.016 55.4833 114.161C55.7812 114.551 55.7812 114.551 55.7464 114.873C55.7031 114.986 55.6598 115.099 55.6152 115.215C55.5984 115.538 55.5896 115.861 55.5861 116.184C55.4921 121.376 55.4921 121.376 53.7048 123.178C52.786 123.928 51.7397 124.307 50.5492 124.243C48.3639 123.907 47.0061 122.9 45.4468 121.42C45.34 121.319 45.2332 121.217 45.1231 121.113C44.9056 120.907 44.6884 120.7 44.4717 120.492C44.1842 120.218 43.894 119.948 43.6031 119.677C41.6834 117.865 40.3808 115.857 40.2795 113.14C40.3644 110.777 41.314 108.976 43.0136 107.362C43.2825 107.122 43.5597 106.893 43.8385 106.665C44.4577 106.138 44.9636 105.541 45.4883 104.922C45.5431 104.867 45.5979 104.812 45.6543 104.756Z" fill="#70B3CE"/>
<path d="M71.0411 42.946C71.447 43.202 71.7602 43.4915 72.1022 43.8285C72.2417 43.9654 72.3813 44.1023 72.525 44.2434C72.7487 44.4657 72.7487 44.4657 72.9768 44.6925C73.2076 44.921 73.2076 44.921 73.443 45.1541C73.7679 45.4762 74.0921 45.7991 74.4159 46.1224C74.8307 46.5364 75.2482 46.9477 75.6664 47.3583C76.0653 47.751 76.4612 48.1467 76.8575 48.542C77.0079 48.6891 77.1583 48.8363 77.3133 48.988C77.4508 49.1265 77.5882 49.2649 77.7298 49.4076C77.8517 49.5286 77.9736 49.6496 78.0991 49.7743C78.4135 50.212 78.4306 50.4388 78.3594 50.9667C78.1513 51.2664 78.1513 51.2664 77.8626 51.5387C77.7593 51.6386 77.6559 51.7385 77.5494 51.8415C77.44 51.9432 77.3307 52.0448 77.218 52.1496C77.0037 52.3537 76.7897 52.5582 76.576 52.763C76.4804 52.8525 76.3847 52.942 76.2862 53.0342C75.9986 53.3124 75.9986 53.3124 75.7031 53.789C75.5936 53.789 75.484 53.789 75.3711 53.789C75.3334 53.8814 75.2958 53.9739 75.257 54.0691C74.978 54.5606 74.6121 54.8869 74.209 55.2831C73.9287 55.5759 73.649 55.8693 73.3698 56.1631C73.1303 56.4112 72.8901 56.6588 72.6498 56.9062C72.4852 57.0766 72.3216 57.2481 72.1592 57.4206C71.9221 57.6718 71.6815 57.9189 71.4399 58.1657C71.2983 58.3134 71.1566 58.4611 71.0107 58.6133C70.4338 59.0226 70.0875 59.0034 69.3945 58.9354C67.4635 58.4666 66.0064 56.67 64.9121 55.1171C64.8625 54.9983 64.8128 54.8795 64.7617 54.7572C64.4882 54.2991 64.2681 54.2548 63.75 54.121C63.1626 54.0636 62.5759 54.0441 61.9861 54.0276C61.6726 54.0176 61.3592 54.0071 61.0458 53.9958C60.8385 53.9899 60.8385 53.9899 60.6271 53.9838C60.2637 53.955 60.2637 53.955 59.7656 53.789C60.0374 53.0986 60.5407 52.6351 61.0571 52.1225C61.1551 52.0239 61.2531 51.9253 61.3541 51.8237C61.6779 51.4985 62.0028 51.1745 62.3278 50.8506C62.5533 50.625 62.7787 50.3993 63.004 50.1735C63.4761 49.7009 63.9489 49.2288 64.422 48.7572C65.0291 48.1521 65.6346 47.5454 66.2397 46.9383C66.7047 46.4722 67.1705 46.0068 67.6364 45.5417C67.8601 45.3182 68.0835 45.0946 68.3066 44.8707C68.6182 44.5583 68.9308 44.2469 69.2437 43.9359C69.3361 43.8428 69.4285 43.7498 69.5237 43.6539C70.4526 42.7352 70.4526 42.7352 71.0411 42.946Z" fill="#E7AF03"/>
<path d="M128.828 42.334C129.264 42.4896 129.264 42.4896 129.658 42.666C129.555 43.2781 129.383 43.7989 129.134 44.3664C129.058 44.5398 128.982 44.7133 128.905 44.892C128.821 45.0819 128.738 45.2718 128.652 45.4675C128.468 45.8905 128.285 46.3138 128.102 46.7373C128.054 46.8498 128.005 46.9623 127.955 47.0782C127.366 48.4508 126.8 49.8331 126.234 51.2158C126.18 51.3493 126.125 51.4827 126.069 51.6202C125.782 52.3205 125.496 53.0209 125.21 53.7214C124.619 55.1711 124.025 56.6203 123.433 58.0696C123.24 58.5398 123.048 59.01 122.856 59.4803C122.572 60.1751 122.288 60.8697 122.003 61.5641C121.867 61.8954 121.732 62.2269 121.597 62.5585C121.524 62.737 121.45 62.9156 121.375 63.0996C121.284 63.3226 121.284 63.3226 121.191 63.5501C121.025 63.916 121.025 63.916 120.693 64.4141C120.127 64.3153 119.828 64.1209 119.404 63.7363C119.289 63.6313 119.173 63.5262 119.054 63.4179C118.495 62.892 117.95 62.3548 117.409 61.8103C117.293 61.6941 117.177 61.5778 117.058 61.458C116.692 61.0914 116.327 60.7242 115.962 60.3571C115.712 60.1064 115.462 59.8557 115.212 59.6051C114.604 58.995 113.996 58.3844 113.389 57.7734C113.795 57.005 114.33 56.4514 114.941 55.8455C115.042 55.7434 115.144 55.6414 115.249 55.5364C115.463 55.3221 115.677 55.1082 115.892 54.8947C116.222 54.5666 116.55 54.2368 116.878 53.9068C117.086 53.6986 117.295 53.4905 117.503 53.2826C117.602 53.1835 117.7 53.0844 117.802 52.9824C118.497 52.2949 118.497 52.2949 118.867 52.2949C118.91 52.1964 118.952 52.0978 118.996 51.9963C119.219 51.5945 119.442 51.3864 119.796 51.0961C120.551 50.4567 121.243 49.7686 121.937 49.0641C122.204 48.7947 122.471 48.5254 122.738 48.2561C123.153 47.8375 123.567 47.4187 123.981 46.9994C126.8 44.1449 126.8 44.1449 128.206 43.0826C128.349 42.9586 128.349 42.9586 128.496 42.832C128.496 42.7225 128.496 42.6129 128.496 42.5C128.606 42.4452 128.715 42.3904 128.828 42.334Z" fill="#E9B004"/>
<path d="M52.627 67.2363C53.1093 67.2891 53.2556 67.3648 53.5939 67.7234C53.747 67.9291 53.747 67.9291 53.9032 68.139C55.088 69.692 55.088 69.692 56.4998 71.03C56.7773 71.3867 56.7773 71.3867 56.7923 71.9542C56.5785 72.6566 56.258 72.981 55.7086 73.4308C55.5132 73.5999 55.3185 73.7699 55.1243 73.9405C55.0178 74.0339 54.9113 74.1272 54.8016 74.2234C53.9883 74.9647 53.2294 75.765 52.462 76.5532C52.3396 76.6773 52.2173 76.8015 52.0913 76.9294C51.9824 77.0411 51.8736 77.1527 51.7615 77.2677C51.4648 77.5293 51.4648 77.5293 50.9668 77.6953C50.6918 77.5215 50.6918 77.5215 50.3857 77.2388C50.2693 77.1318 50.1529 77.0248 50.033 76.9145C49.4333 76.3346 48.8463 75.7426 48.2606 75.1487C47.765 74.6602 47.2487 74.2083 46.7107 73.7674C46.636 73.694 46.5613 73.6205 46.4844 73.5449C46.4844 73.4354 46.4844 73.3258 46.4844 73.2129C46.6888 73.0138 46.6888 73.0138 46.9954 72.7667C47.6943 72.1731 48.3329 71.5344 48.972 70.8783C49.0761 70.7721 49.1801 70.6659 49.2874 70.5565C49.7238 70.1112 50.1599 69.6656 50.5929 69.2169C50.9119 68.8869 51.2335 68.5595 51.5556 68.2324C51.6533 68.1299 51.7511 68.0274 51.8517 67.9218C52.1307 67.641 52.1307 67.641 52.627 67.2363Z" fill="#B10740"/>
<path d="M104.258 100.107C104.234 100.343 104.21 100.578 104.185 100.813C104.172 100.944 104.158 101.075 104.144 101.21C104.092 101.602 104.092 101.602 104.006 101.926C103.621 103.553 104.015 105.224 104.819 106.659C104.962 106.884 105.109 107.107 105.262 107.325C105.42 107.578 105.42 107.578 105.42 107.91C103.76 107.841 102.724 106.592 101.622 105.461C101.512 105.35 101.402 105.238 101.289 105.124C101.087 104.919 100.886 104.714 100.685 104.508C100.493 104.313 100.301 104.119 100.107 103.926C100.213 103.821 100.318 103.716 100.427 103.607C100.841 103.194 101.251 102.778 101.661 102.361C101.928 102.091 102.195 101.82 102.463 101.55C102.667 101.342 102.667 101.342 102.875 101.129C103.005 100.998 103.135 100.867 103.269 100.732C103.387 100.612 103.505 100.492 103.627 100.369C103.926 100.107 103.926 100.107 104.258 100.107Z" fill="#C41D43"/>
<path d="M41.4818 42.4785C41.5982 42.479 41.7146 42.4794 41.8346 42.4799C42.0189 42.4797 42.0189 42.4797 42.2069 42.4795C42.6216 42.4792 43.0364 42.4801 43.4511 42.4811C43.7472 42.4811 44.0432 42.4811 44.3393 42.481C45.1457 42.4809 45.9521 42.4819 46.7584 42.4831C47.6002 42.4841 48.4419 42.4842 49.2837 42.4844C50.8788 42.4849 52.4739 42.4863 54.0691 42.4879C55.8846 42.4898 57.7001 42.4907 59.5156 42.4915C63.2513 42.4933 66.987 42.4962 70.7227 42.4999C70.7227 42.6643 70.7227 42.8286 70.7227 42.9979C70.5036 43.0527 70.2844 43.1075 70.0586 43.164C70.0586 43.0544 70.0586 42.9448 70.0586 42.8319C60.3617 42.8319 50.6647 42.8319 40.6739 42.8319C40.5473 45.0657 40.5473 45.0657 41.0059 47.1483C40.8963 47.1483 40.7868 47.1483 40.6739 47.1483C40.6191 47.2579 40.5643 47.3675 40.5079 47.4804C40.5038 46.7978 40.5007 46.1152 40.4987 45.4325C40.4979 45.2002 40.4968 44.9678 40.4953 44.7354C40.4933 44.402 40.4925 44.0687 40.4916 43.7353C40.4908 43.5345 40.4899 43.3336 40.489 43.1267C40.5204 42.3591 40.7886 42.4807 41.4818 42.4785Z" fill="#E9EAEA"/>
<path d="M103.975 87.09C104.534 87.3815 104.891 87.7775 105.295 88.2476C105.456 88.4281 105.616 88.6084 105.777 88.7885C105.857 88.8778 105.936 88.967 106.018 89.059C106.736 89.855 107.494 90.6193 108.325 91.2981C108.864 91.7424 108.894 91.8546 108.969 92.5536C108.965 93.4672 108.521 94.186 108.076 94.9609C107.967 94.9609 107.857 94.9609 107.744 94.9609C107.792 94.8753 107.84 94.7897 107.889 94.7015C108.302 93.8069 108.517 92.9557 108.408 91.9726C108.106 91.5649 107.838 91.2582 107.476 90.9149C107.381 90.8207 107.286 90.7266 107.188 90.6295C106.987 90.4319 106.785 90.2357 106.582 90.0407C106.27 89.7413 105.963 89.438 105.655 89.1338C105.46 88.9421 105.264 88.7507 105.068 88.5595C104.976 88.4688 104.883 88.378 104.788 88.2845C104.35 87.8076 104.35 87.8076 103.76 87.6562C103.76 87.5466 103.76 87.437 103.76 87.3241C102.714 88.2088 101.742 89.155 100.777 90.1269C100.616 90.2891 100.454 90.4511 100.293 90.6132C99.9474 90.9595 99.6024 91.3061 99.2576 91.6529C98.7126 92.201 98.1668 92.7483 97.621 93.2955C96.0698 94.8506 94.5197 96.4068 92.9702 97.9636C92.1124 98.8255 91.254 99.6867 90.395 100.547C89.8519 101.092 89.3094 101.637 88.7676 102.182C88.4316 102.52 88.095 102.857 87.7581 103.194C87.5267 103.426 87.2962 103.659 87.0657 103.892C86.9288 104.028 86.792 104.165 86.651 104.306C86.5319 104.425 86.4127 104.545 86.2899 104.668C85.9961 104.922 85.9961 104.922 85.6641 104.922C85.6641 104.812 85.6641 104.703 85.6641 104.59C85.897 104.36 85.897 104.36 86.2257 104.089C87.0711 103.37 87.8488 102.592 88.6312 101.805C88.7911 101.645 88.951 101.484 89.111 101.324C89.4528 100.982 89.7942 100.64 90.1355 100.297C90.675 99.7551 91.2152 99.2139 91.7554 98.6729C92.9005 97.526 94.0449 96.3784 95.1892 95.2306C96.4283 93.9879 97.6675 92.7453 98.9075 91.5035C99.4448 90.9654 99.9817 90.4269 100.518 89.888C100.851 89.554 101.184 89.2203 101.517 88.8868C101.746 88.6576 101.974 88.428 102.203 88.1984C102.338 88.0629 102.474 87.9275 102.613 87.7879C102.731 87.6696 102.849 87.5513 102.97 87.4294C103.473 86.9612 103.473 86.9612 103.975 87.09Z" fill="#A2113B"/>
<path d="M52.627 67.2363C53.1093 67.2891 53.2556 67.3648 53.5939 67.7234C53.747 67.9291 53.747 67.9291 53.9032 68.139C54.6943 69.1697 55.5245 70.1923 56.492 71.0638C56.5862 71.1703 56.6803 71.2769 56.7773 71.3867C56.7358 72.0093 56.7358 72.0093 56.6113 72.5488C56.5565 72.5488 56.5018 72.5488 56.4453 72.5488C56.44 72.3798 56.4346 72.2107 56.4291 72.0365C56.3118 71.2174 55.8045 70.8179 55.2106 70.2869C54.012 69.1928 54.012 69.1928 53.7891 68.3984C53.6795 68.3984 53.5699 68.3984 53.457 68.3984C53.3475 68.2341 53.2379 68.0697 53.125 67.9004C52.1803 67.9327 51.705 68.572 51.0881 69.2084C50.975 69.3224 50.862 69.4364 50.7455 69.5539C50.3853 69.9177 50.0276 70.2838 49.6698 70.65C49.4258 70.8974 49.1816 71.1445 48.9373 71.3916C48.3393 71.997 47.7433 72.6044 47.1484 73.2129C47.303 73.9223 47.303 73.9223 47.797 74.4012C47.9117 74.4473 48.0264 74.4935 48.1445 74.541C48.4353 74.8073 48.4353 74.8073 48.7249 75.1182C48.8846 75.2851 48.8846 75.2851 49.0476 75.4554C49.269 75.6901 49.4895 75.9257 49.709 76.1623C49.8157 76.2731 49.9224 76.384 50.0323 76.4982C50.1281 76.6004 50.2238 76.7026 50.3225 76.8079C50.6266 77.0547 50.6266 77.0547 51.0218 77.1258C51.6941 76.9823 52.0586 76.5331 52.5148 76.0507C52.6123 75.9512 52.7098 75.8517 52.8103 75.7492C53.1213 75.4314 53.4293 75.1109 53.7372 74.79C54.0472 74.4696 54.3578 74.1498 54.6694 73.8308C54.8631 73.6323 55.0558 73.4328 55.2475 73.2322C55.4745 72.9982 55.7102 72.7726 55.9473 72.5488C56.0568 72.5488 56.1664 72.5488 56.2793 72.5488C56.0968 73.0962 55.9787 73.1976 55.5458 73.5514C54.5075 74.432 53.5746 75.418 52.624 76.3912C52.4818 76.5352 52.3396 76.6792 52.1931 76.8276C52.0651 76.9585 51.937 77.0893 51.8051 77.2241C51.4648 77.5293 51.4648 77.5293 50.9668 77.6953C50.6918 77.5215 50.6918 77.5215 50.3857 77.2388C50.2693 77.1318 50.1529 77.0248 50.033 76.9145C49.4333 76.3346 48.8463 75.7426 48.2606 75.1487C47.765 74.6602 47.2487 74.2083 46.7107 73.7674C46.636 73.694 46.5613 73.6205 46.4844 73.5449C46.4844 73.4354 46.4844 73.3258 46.4844 73.2129C46.6888 73.0138 46.6888 73.0138 46.9954 72.7667C47.6943 72.1731 48.3329 71.5344 48.972 70.8783C49.0761 70.7721 49.1801 70.6659 49.2874 70.5565C49.7238 70.1112 50.1599 69.6656 50.5929 69.2169C50.9119 68.8869 51.2335 68.5595 51.5556 68.2324C51.6533 68.1299 51.7511 68.0274 51.8517 67.9218C52.1307 67.641 52.1307 67.641 52.627 67.2363Z" fill="#AD123C"/>
<path d="M64.9121 54.4531C65.6378 54.5377 65.9818 54.766 66.51 55.2625C66.6536 55.3962 66.7972 55.53 66.9452 55.6678C67.3401 56.0526 67.7269 56.4432 68.1118 56.8379C68.8281 57.5714 69.4588 58.1686 70.3906 58.6035C70.3906 58.7131 70.3906 58.8227 70.3906 58.9355C68.575 58.8491 67.4941 58.1393 66.2545 56.8344C64.9121 55.3261 64.9121 55.3261 64.9121 54.4531Z" fill="#BD0F36"/>
<path d="M65.7422 84.834C65.7422 85.332 65.7422 85.332 65.4526 85.6781C65.3205 85.8077 65.1883 85.9372 65.0522 86.0707C64.9099 86.2114 64.7676 86.3521 64.6209 86.4971C64.3953 86.7165 64.3953 86.7165 64.165 86.9403C64.0146 87.0885 63.8641 87.2367 63.7091 87.3894C63.3365 87.7562 62.9627 88.1217 62.5879 88.4863C62.5879 87.7698 62.942 87.5022 63.418 86.9922C63.5275 86.9922 63.6371 86.9922 63.75 86.9922C63.75 86.8826 63.75 86.773 63.75 86.6602C64.0172 86.3969 64.0172 86.3969 64.3726 86.0999C64.8497 85.6946 65.3081 85.2861 65.7422 84.834ZM46.4844 103.926C46.6487 103.981 46.8131 104.035 46.9824 104.092C46.9071 104.164 46.8318 104.236 46.7542 104.31C46.4511 104.608 46.4511 104.608 46.1523 105.088C46.0428 104.924 45.9332 104.759 45.8203 104.59C46.0395 104.371 46.2586 104.152 46.4844 103.926Z" fill="#F6FAFB"/>
<path d="M104.756 66.0742C104.92 66.1564 104.92 66.1564 105.088 66.2402C105.088 66.4594 105.088 66.6785 105.088 66.9043C105.178 66.94 105.269 66.9758 105.362 67.0126C105.886 67.3133 106.271 67.7269 106.686 68.1598C107.24 68.7682 107.24 68.7682 107.91 69.2285C107.91 69.3381 107.91 69.4477 107.91 69.5605C108.02 69.5605 108.129 69.5605 108.242 69.5605C108.242 69.6701 108.242 69.7797 108.242 69.8926C108.333 69.9296 108.425 69.9665 108.519 70.0046C109.023 70.291 109.395 70.6756 109.796 71.0878C109.88 71.173 109.965 71.2582 110.052 71.346C110.321 71.6182 110.589 71.8915 110.857 72.1649C111.208 72.5224 111.56 72.8793 111.913 73.2356C111.998 73.3215 112.083 73.4074 112.17 73.4959C112.743 74.071 113.335 74.6117 113.952 75.1376C114.293 75.4366 114.591 75.7611 114.883 76.1078C114.979 76.2206 115.075 76.3333 115.173 76.4495C115.242 76.5319 115.31 76.6143 115.381 76.6992C114.883 76.6992 114.883 76.6992 114.405 76.2757C114.212 76.0807 114.019 75.8843 113.828 75.6869C113.725 75.5828 113.622 75.4787 113.516 75.3714C113.185 75.037 112.856 74.7009 112.527 74.3646C112.097 73.9263 111.666 73.4886 111.234 73.0514C111.13 72.9461 111.026 72.8407 110.919 72.7322C110.315 72.1233 109.699 71.5427 109.044 70.9891C108.406 70.4296 107.82 69.8128 107.225 69.2078C106.235 68.1888 106.235 68.1888 105.166 67.2564C104.756 66.9043 104.756 66.9043 104.694 66.4374C104.714 66.3175 104.735 66.1977 104.756 66.0742Z" fill="#D56730"/>
<path d="M70.7227 42.832C71.2892 43.0775 71.6638 43.3966 72.1022 43.8287C72.2417 43.9655 72.3813 44.1024 72.525 44.2435C72.6741 44.3917 72.8232 44.5399 72.9768 44.6926C73.1307 44.8449 73.2845 44.9972 73.443 45.1542C73.7679 45.4763 74.0921 45.7992 74.4159 46.1226C74.8307 46.5365 75.2482 46.9478 75.6664 47.3584C76.0653 47.7511 76.4612 48.1468 76.8575 48.5421C77.0079 48.6893 77.1583 48.8364 77.3133 48.9881C77.4508 49.1266 77.5882 49.265 77.7298 49.4077C77.8517 49.5287 77.9736 49.6497 78.0991 49.7744C78.4102 50.2075 78.4149 50.445 78.3594 50.9668C78.2498 50.9668 78.1402 50.9668 78.0273 50.9668C77.9452 50.4737 77.9452 50.4737 77.8613 49.9707C77.7518 49.9707 77.6422 49.9707 77.5293 49.9707C77.5293 49.8611 77.5293 49.7516 77.5293 49.6387C77.4197 49.6387 77.3102 49.6387 77.1973 49.6387C77.1973 49.5291 77.1973 49.4195 77.1973 49.3066C77.1048 49.269 77.0124 49.2313 76.9171 49.1925C76.4258 48.9137 76.0914 48.5527 75.7031 48.1445C75.6038 48.0521 75.5045 47.9596 75.4022 47.8644C75.2051 47.6465 75.2051 47.6465 75.2051 47.3145C75.1062 47.2719 75.0073 47.2293 74.9055 47.1854C74.5083 46.9642 74.3041 46.7444 74.0222 46.391C73.6762 45.9514 73.6762 45.9514 73.2129 45.6543C73.2129 45.5447 73.2129 45.4352 73.2129 45.3223C73.1033 45.3223 72.9938 45.3223 72.8809 45.3223C72.8809 45.2127 72.8809 45.1031 72.8809 44.9902C72.7713 44.9902 72.6617 44.9902 72.5488 44.9902C72.2855 44.7172 72.2855 44.7172 71.9885 44.3573C71.6796 43.9838 71.4085 43.6781 71.0171 43.3904C70.9199 43.3157 70.8228 43.241 70.7227 43.1641C70.7227 43.0545 70.7227 42.9449 70.7227 42.832Z" fill="#DFAC13"/>
<path d="M121.191 104.258C122 104.325 122.4 104.714 122.938 105.275C123.021 105.36 123.105 105.444 123.191 105.531C123.457 105.801 123.72 106.072 123.983 106.343C124.163 106.527 124.343 106.71 124.523 106.893C124.964 107.341 125.402 107.791 125.84 108.242C125.785 108.352 125.73 108.461 125.674 108.574C125.555 108.454 125.436 108.335 125.313 108.211C124.873 107.767 124.431 107.324 123.99 106.881C123.799 106.689 123.608 106.497 123.417 106.305C123.143 106.029 122.868 105.753 122.593 105.478C122.508 105.391 122.423 105.305 122.335 105.216C121.889 104.763 121.889 104.763 121.357 104.424C121.319 104.516 121.281 104.609 121.241 104.704C120.968 105.19 120.627 105.523 120.23 105.915C120.153 105.992 120.077 106.068 119.997 106.147C119.753 106.39 119.507 106.631 119.261 106.873C119.095 107.037 118.929 107.202 118.762 107.367C118.355 107.771 117.947 108.173 117.539 108.574C117.429 108.519 117.32 108.465 117.207 108.408C117.292 108.324 117.378 108.239 117.466 108.152C117.857 107.764 118.248 107.375 118.639 106.987C118.773 106.854 118.907 106.721 119.046 106.584C119.798 105.835 120.513 105.075 121.191 104.258Z" fill="#EAEBEB"/>
<path d="M74.375 76.2012C74.375 76.6992 74.375 76.6992 74.1292 77.0049C74.0142 77.1188 73.8992 77.2327 73.7807 77.3501C73.5862 77.5445 73.5862 77.5445 73.3878 77.7428C73.2462 77.8819 73.1046 78.0209 72.9587 78.1642C72.815 78.3072 72.6713 78.4502 72.5232 78.5975C72.0625 79.0554 71.6001 79.5115 71.1377 79.9677C70.8257 80.2772 70.5137 80.5869 70.2019 80.8966C69.436 81.657 68.6687 82.4159 67.9004 83.1738C67.7908 83.119 67.6812 83.0643 67.5684 83.0078C68.1258 82.3028 68.6935 81.7512 69.3945 81.1816C69.866 80.7337 70.2966 80.2694 70.7123 79.7705C71.171 79.2271 71.6642 78.8062 72.2168 78.3594C72.4972 78.0864 72.7735 77.8092 73.0469 77.5293C73.2853 77.2904 73.524 77.0518 73.7628 76.8134C73.8786 76.6976 73.9944 76.5818 74.1137 76.4625C74.1999 76.3763 74.2861 76.29 74.375 76.2012Z" fill="#EAEDED"/>
<path d="M64.9121 54.4531C65.323 54.5353 65.323 54.5353 65.7422 54.6191C65.5778 54.8657 65.5778 54.8657 65.4102 55.1172C66.6121 56.6885 67.816 58.2059 69.8615 58.5413C70.0361 58.5618 70.2107 58.5823 70.3906 58.6035C70.3906 58.7131 70.3906 58.8227 70.3906 58.9355C68.575 58.8491 67.4941 58.1393 66.2545 56.8344C64.9121 55.3261 64.9121 55.3261 64.9121 54.4531Z" fill="#BB343C"/>
<path d="M52.627 67.2363C53.0915 67.2948 53.2676 67.3775 53.5939 67.7234C53.6959 67.8605 53.798 67.9977 53.9032 68.139C54.6943 69.1697 55.5245 70.1923 56.492 71.0638C56.6332 71.2236 56.6332 71.2236 56.7773 71.3867C56.7358 72.0093 56.7358 72.0093 56.6113 72.5488C56.5565 72.5488 56.5018 72.5488 56.4453 72.5488C56.44 72.3798 56.4346 72.2107 56.4291 72.0365C56.3118 71.2174 55.8045 70.8179 55.2106 70.2869C54.012 69.1928 54.012 69.1928 53.7891 68.3984C53.6795 68.3984 53.5699 68.3984 53.457 68.3984C53.3475 68.2341 53.2379 68.0697 53.125 67.9004C52.6995 67.7793 52.6995 67.7793 52.2949 67.7344C52.4045 67.57 52.5141 67.4057 52.627 67.2363Z" fill="#AB143C"/>
<path d="M104.756 66.0742C104.92 66.1564 104.92 66.1564 105.088 66.2402C105.088 66.4594 105.088 66.6785 105.088 66.9043C105.178 66.94 105.269 66.9758 105.362 67.0126C105.886 67.3133 106.271 67.7269 106.686 68.1598C107.24 68.7682 107.24 68.7682 107.91 69.2285C107.91 69.3381 107.91 69.4477 107.91 69.5605C108.02 69.5605 108.129 69.5605 108.242 69.5605C108.242 69.6701 108.242 69.7797 108.242 69.8926C108.338 69.9302 108.434 69.9679 108.533 70.0067C109 70.2795 109.252 70.6223 109.57 71.0547C109.072 71.0547 109.072 71.0547 108.727 70.7631C108.597 70.6292 108.466 70.4954 108.332 70.3576C108.189 70.2115 108.045 70.0654 107.897 69.915C107.747 69.7603 107.597 69.6057 107.443 69.4464C107.149 69.1445 106.854 68.8429 106.558 68.5418C106.419 68.4 106.28 68.2583 106.137 68.1123C105.819 67.8006 105.501 67.5172 105.152 67.2415C104.756 66.9043 104.756 66.9043 104.694 66.4374C104.714 66.3175 104.735 66.1977 104.756 66.0742Z" fill="#D86A33"/>
<path d="M123.018 57.7734C123.127 57.7734 123.237 57.7734 123.35 57.7734C123.184 58.7689 122.788 59.6722 122.418 60.6066C122.292 60.9264 122.167 61.2467 122.042 61.5672C121.962 61.7705 121.882 61.9738 121.8 62.1832C121.69 62.4609 121.69 62.4609 121.579 62.7442C121.372 63.2189 121.137 63.6455 120.859 64.082C120.693 63.75 120.693 63.75 120.889 63.1599C120.982 62.9203 121.076 62.6812 121.171 62.4426C121.264 62.2045 121.357 61.9663 121.45 61.728C121.512 61.5694 121.512 61.5694 121.577 61.4077C121.693 61.0851 121.778 60.7634 121.856 60.4297C121.965 60.4297 122.075 60.4297 122.188 60.4297C122.212 60.279 122.235 60.1284 122.26 59.9731C122.331 59.564 122.412 59.1699 122.52 58.7695C122.629 58.7695 122.739 58.7695 122.852 58.7695C122.906 58.4408 122.961 58.1121 123.018 57.7734Z" fill="#E3AD13"/>
<path d="M64.248 42.5C66.3847 42.5 68.5213 42.5 70.7227 42.5C70.7227 42.6644 70.7227 42.8287 70.7227 42.998C70.5035 43.0528 70.2844 43.1076 70.0586 43.1641C70.0586 43.0545 70.0586 42.9449 70.0586 42.832C69.9184 42.8333 69.9184 42.8333 69.7754 42.8347C67.9239 42.8496 66.0931 42.8397 64.248 42.666C64.248 42.6112 64.248 42.5564 64.248 42.5Z" fill="#EDEFE9"/>
<path d="M118.867 68.0664C119.094 68.7464 118.891 69.0117 118.614 69.6663C118.569 69.7724 118.525 69.8786 118.479 69.9879C118.337 70.3269 118.192 70.6648 118.047 71.0028C117.951 71.2324 117.854 71.4621 117.757 71.6918C117.52 72.2549 117.281 72.8171 117.041 73.3789C116.931 73.3789 116.822 73.3789 116.709 73.3789C116.654 73.4885 116.599 73.598 116.543 73.7109C116.611 73.2362 116.694 72.906 116.946 72.4944C117.213 72.0406 117.358 71.6305 117.508 71.1273C117.853 70.0473 118.336 69.0655 118.867 68.0664Z" fill="#D5642F"/>
<path d="M99.6094 119.199C100.65 120.051 101.586 120.994 102.529 121.951C102.753 122.177 102.979 122.401 103.205 122.625C103.534 122.957 103.843 123.294 104.144 123.651C104.229 123.751 104.314 123.851 104.401 123.955C104.463 124.029 104.526 124.103 104.59 124.18C104.092 124.18 104.092 124.18 103.821 123.922C103.715 123.794 103.61 123.667 103.5 123.536C102.588 122.481 101.595 121.512 100.596 120.539C100.469 120.414 100.342 120.288 100.211 120.159C100.095 120.046 99.9792 119.933 99.86 119.817C99.6094 119.531 99.6094 119.531 99.6094 119.199Z" fill="#D46135"/>
<path d="M128.164 45.6543C128.375 46.2856 128.248 46.4619 127.995 47.0667C127.921 47.2441 127.847 47.4215 127.771 47.6043C127.652 47.882 127.652 47.882 127.531 48.1653C127.454 48.3517 127.377 48.5381 127.297 48.7301C126.714 50.1147 126.714 50.1147 126.338 50.3027C126.401 49.3507 126.713 48.6355 127.123 47.7788C127.372 47.2305 127.552 46.6767 127.72 46.0992C127.832 45.8203 127.832 45.8203 128.164 45.6543Z" fill="#E4B014"/>
<path d="M128.662 42.666C128.443 42.8851 128.224 43.1042 127.998 43.33C127.998 43.2205 127.998 43.1109 127.998 42.998C127.864 43.0542 127.73 43.1104 127.592 43.1683C127.095 43.3757 126.598 43.5819 126.101 43.7873C125.886 43.8766 125.671 43.9663 125.456 44.0565C125.147 44.1858 124.838 44.3134 124.529 44.4409C124.343 44.5183 124.156 44.5957 123.965 44.6754C123.516 44.8242 123.516 44.8242 123.184 44.6582C124.337 44.1192 125.502 43.6064 126.67 43.1018C126.809 43.0403 126.948 42.9789 127.091 42.9156C127.288 42.8312 127.288 42.8312 127.49 42.7451C127.608 42.6939 127.725 42.6426 127.847 42.5898C128.164 42.5 128.164 42.5 128.662 42.666Z" fill="#E5E5E0"/>
<path d="M104.092 100.273C104.147 100.273 104.201 100.273 104.258 100.273C104.111 101.532 104.111 101.532 104.009 101.902C103.89 102.422 103.867 102.938 103.832 103.469C103.811 103.784 103.811 103.784 103.79 104.105C103.78 104.265 103.77 104.425 103.76 104.59C103.428 104.258 103.428 104.258 103.414 103.607C103.427 103.339 103.442 103.072 103.459 102.805C103.464 102.672 103.469 102.54 103.475 102.403C103.521 101.581 103.66 100.995 104.092 100.273Z" fill="#BB2345"/>
<path d="M128.828 42.334C129.264 42.4896 129.264 42.4896 129.658 42.666C129.555 43.3688 129.309 43.9149 128.984 44.5441C128.893 44.7215 128.802 44.8989 128.708 45.0817C128.603 45.2829 128.603 45.2829 128.496 45.4883C128.441 45.3787 128.387 45.2691 128.33 45.1562C128.481 44.7519 128.64 44.3657 128.818 43.9734C128.866 43.864 128.914 43.7547 128.964 43.642C129.084 43.3715 129.205 43.1017 129.326 42.832C129.196 42.9176 129.066 43.0032 128.932 43.0914C128.788 43.1702 128.644 43.2489 128.496 43.3301C128.387 43.2753 128.277 43.2205 128.164 43.1641C128.455 42.5208 128.455 42.5208 128.828 42.334Z" fill="#E3B82A"/>
<path d="M65.7422 84.834C65.7422 85.332 65.7422 85.332 65.5189 85.6172C65.4166 85.7189 65.3144 85.8206 65.2091 85.9254C65.0983 86.0362 64.9874 86.1469 64.8732 86.261C64.7559 86.3756 64.6387 86.4902 64.5178 86.6083C64.3438 86.7831 64.3438 86.7831 64.1663 86.9614C63.2963 87.8223 63.2963 87.8223 62.9199 87.8223C63.0548 87.5006 63.0548 87.5006 63.252 87.1582C63.4163 87.1034 63.5807 87.0486 63.75 86.9922C63.75 86.8826 63.75 86.773 63.75 86.6602C64.0172 86.3969 64.0172 86.3969 64.3726 86.0999C64.8497 85.6946 65.3081 85.2861 65.7422 84.834Z" fill="#EBEDEE"/>
<path d="M120.029 65.0781C120.139 65.1329 120.248 65.1877 120.361 65.2441C120.076 66.1487 119.723 67.0224 119.365 67.9004C119.256 67.9004 119.146 67.9004 119.033 67.9004C119.142 67.2267 119.356 66.6487 119.625 66.0223C119.738 65.7562 119.738 65.7562 119.854 65.4847C119.941 65.2835 119.941 65.2835 120.029 65.0781Z" fill="#D3632D"/>
<path d="M116.377 73.877C116.487 73.9865 116.596 74.0961 116.709 74.209C116.49 74.7568 116.271 75.3047 116.045 75.8691C115.99 75.8691 115.935 75.8691 115.879 75.8691C115.821 75.0595 115.976 74.5791 116.377 73.877Z" fill="#D6632F"/>
<path d="M128.662 42.6658C128.443 42.8849 128.224 43.1041 127.998 43.3299C127.998 43.2203 127.998 43.1107 127.998 42.9978C127.258 43.2444 127.258 43.2444 126.504 43.4959C127.127 42.8729 127.774 42.3697 128.662 42.6658Z" fill="#EBE1B2"/>
<path d="M67.7344 42.5C68.7205 42.5 69.7066 42.5 70.7227 42.5C70.7227 42.6644 70.7227 42.8287 70.7227 42.998C70.6131 42.998 70.5035 42.998 70.3906 42.998C70.3906 42.8885 70.3906 42.7789 70.3906 42.666C69.5141 42.666 68.6375 42.666 67.7344 42.666C67.7344 42.6112 67.7344 42.5564 67.7344 42.5Z" fill="#ECE1B4"/>
<path d="M104.756 66.0742C104.92 66.1564 104.92 66.1564 105.088 66.2402C105.088 66.4594 105.088 66.6785 105.088 66.9043C105.247 66.9762 105.247 66.9762 105.41 67.0496C105.752 67.2363 105.752 67.2363 105.918 67.5684C105.382 67.4759 105.077 67.3538 104.756 66.9043C104.725 66.4581 104.725 66.4581 104.756 66.0742Z" fill="#DA7747"/>
<path d="M111.895 58.9355C112.004 58.9903 112.114 59.0451 112.227 59.1016C111.953 59.4303 111.679 59.759 111.396 60.0977C111.232 60.0429 111.068 59.9881 110.898 59.9316C111.227 59.6029 111.556 59.2742 111.895 58.9355Z" fill="#E0824E"/>
<path d="M64.9121 54.4531C65.323 54.5353 65.323 54.5353 65.7422 54.6191C65.5778 54.8657 65.5778 54.8657 65.4102 55.1172C65.4614 55.4746 65.4614 55.4746 65.5762 55.7812C65.2441 55.4907 65.2441 55.4907 64.9121 55.1172C64.9121 54.898 64.9121 54.6789 64.9121 54.4531Z" fill="#C13330"/>
<path d="M125.01 53.291C125.176 53.7891 125.176 53.7891 125.047 54.1282C124.983 54.2457 124.92 54.3632 124.854 54.4843C124.791 54.603 124.728 54.7218 124.663 54.8442C124.588 54.9793 124.588 54.9793 124.512 55.1172C124.457 55.0076 124.402 54.898 124.346 54.7852C124.546 54.2745 124.764 53.7817 125.01 53.291Z" fill="#E3AF11"/>
<path d="M40.6738 47.1484C40.9478 47.2032 41.2217 47.258 41.5039 47.3145C41.5039 47.4788 41.5039 47.6432 41.5039 47.8125C41.3396 47.7577 41.1752 47.7029 41.0059 47.6465C40.8415 47.8108 40.6771 47.9752 40.5078 48.1445C40.5626 47.8158 40.6174 47.4871 40.6738 47.1484Z" fill="#E87F54"/>
</svg>
